<svg id="Слой_1" data-name="Слой 1" xmlns="http://www.w3.org/2000/svg" viewBox="0 0 40.1 40.05"><path d="M24,39.15a3.08,3.08,0,0,1-4.35,0L.85,20.4a2.52,2.52,0,0,1-.67-1A3.76,3.76,0,0,1,0,18.2V3A2.91,2.91,0,0,1,2.82,0H18.2a4.06,4.06,0,0,1,1.2.18,2.5,2.5,0,0,1,1.1.67L39.15,19.5a3.09,3.09,0,0,1,.1,4.36l-.1.09Zm-2.05-2L37.1,21.9,18.2,3H3V18.2ZM8.25,10.8a2.62,2.62,0,0,0,2.6-2.6,2.46,2.46,0,0,0-.77-1.82A2.53,2.53,0,0,0,8.25,5.6a2.5,2.5,0,0,0-1.82.78A2.5,2.5,0,0,0,5.65,8.2,2.55,2.55,0,0,0,6.43,10,2.48,2.48,0,0,0,8.25,10.8Z"/></svg>