<svg id="Слой_1" data-name="Слой 1" xmlns="http://www.w3.org/2000/svg" viewBox="0 0 40.01 36.65"><path d="M20,36.65,18,34.8q-5.28-4.86-8.74-8.38A60.53,60.53,0,0,1,3.7,20.13a20.68,20.68,0,0,1-2.87-5A13.45,13.45,0,0,1,0,10.55,10.26,10.26,0,0,1,10.5,0a10.8,10.8,0,0,1,5.28,1.35A12.82,12.82,0,0,1,20,5.25a14.68,14.68,0,0,1,4.45-4A10.61,10.61,0,0,1,29.5,0,10.33,10.33,0,0,1,40,10.14c0,.14,0,.28,0,.41a13,13,0,0,1-.82,4.55,20.39,20.39,0,0,1-2.88,5,59.92,59.92,0,0,1-5.51,6.29q-3.45,3.52-8.74,8.38Zm0-3.95q5.07-4.65,8.33-8a63.85,63.85,0,0,0,5.2-5.83,18.76,18.76,0,0,0,2.7-4.46A10.37,10.37,0,0,0,37,10.56,7.24,7.24,0,0,0,29.51,3a8.05,8.05,0,0,0-4.77,1.58A11.4,11.4,0,0,0,21.2,9H18.75a11,11,0,0,0-3.49-4.4A7.87,7.87,0,0,0,10.49,3,7.3,7.3,0,0,0,5.1,5.13,7.44,7.44,0,0,0,3,10.57a10.86,10.86,0,0,0,.78,3.91A19.13,19.13,0,0,0,6.48,19a59.94,59.94,0,0,0,5.22,5.8Q15,28.1,20,32.7Z"/></svg>