<svg id="Слой_1" data-name="Слой 1" xmlns="http://www.w3.org/2000/svg" viewBox="0 0 73.2 72.01"><rect x="21.61" y="21.48" width="31.1" height="5"/><rect x="34.34" y="28.99" width="5" height="27.22"/><path d="M67,65.84c5.91-5.9,6-13.9,6.15-29.27.2-16.33.3-25.46-6.13-31.55C61.77.07,53.38,0,36.57,0S11.43,0,6.17,5C-.1,11,0,20,0,34.29.09,49.05.15,58.42,6.86,65.14S23,71.92,37.71,72C51.91,72.07,60.74,72.11,67,65.84Zm-56.28-4c-5.87-5.88-5.92-14.08-6-27,0-12.52-.09-20.35,5.4-25.61C14.71,4.82,22,4.82,36.71,4.82s22,.06,26.63,4.39c5.63,5.33,5.54,13.32,5.37,27.61-.13,13.45-.21,20.45-5.38,25.61-5.47,5.49-13.2,5.45-25.62,5.39C24.81,67.75,16.58,67.7,10.71,61.82Z"/></svg>