<svg id="Слой_1" data-name="Слой 1" xmlns="http://www.w3.org/2000/svg" viewBox="0 0 36 36"><path d="M33.8,36,20.65,22.85a11,11,0,0,1-3.5,2,12.29,12.29,0,0,1-4.25.72,12.43,12.43,0,0,1-9.15-3.75A12.33,12.33,0,0,1,0,12.8a12.34,12.34,0,0,1,3.75-9A12.38,12.38,0,0,1,12.83,0a12.29,12.29,0,0,1,9,3.75,12.39,12.39,0,0,1,3.72,9.06A12.2,12.2,0,0,1,24.9,17a12.6,12.6,0,0,1-2.1,3.75L36,33.8ZM12.85,22.6a9.4,9.4,0,0,0,6.91-2.87A9.53,9.53,0,0,0,22.6,12.8a9.47,9.47,0,0,0-2.84-6.92A9.37,9.37,0,0,0,12.85,3a9.49,9.49,0,0,0-7,2.88A9.48,9.48,0,0,0,3,12.8a9.46,9.46,0,0,0,2.87,6.93A9.5,9.5,0,0,0,12.85,22.6Z"/></svg>